<svg id="filled_outline" height="512" viewBox="0 0 64 64" width="512" xmlns="http://www.w3.org/2000/svg" data-name="filled outline"><path d="m42.97658 17.64511a11.72754 11.72754 0 0 0 -4.08487-.64456c-3.80617.03355-10.02753.01925-13.8338-.00038a11.70706 11.70706 0 0 0 -4.0327.64454 11.99512 11.99512 0 0 0 -8.02521 11.305 29.891 29.891 0 0 0 5.02018 16.58054l3.31572 4.97359a5.60553 5.60553 0 0 0 4.6641 2.49616h1a2 2 0 0 1 2 2v2.98058a3 3 0 0 0 2.98064 2.99993 3 3 0 0 0 3.01936-2.99993v-1.98058a3 3 0 0 1 3-3 5.60553 5.60553 0 0 0 4.66409-2.49615l3.31572-4.97359a29.891 29.891 0 0 0 5.02019-16.58054 11.99576 11.99576 0 0 0 -8.02342-11.30461z" fill="#b64b6d"/><path d="m27 17v-5.8277a6 6 0 0 0 -1.39067-3.84111l-1.14771-1.37725a1.801 1.801 0 0 1 1.38355-2.95394h.40883a1.801 1.801 0 0 1 1.27348.52749l3.88672 3.88672a2 2 0 0 1 .5858 1.41422v8.17157z" fill="#45b365"/><path d="m31 17v-4.31625a10 10 0 0 1 3.59816-7.68221l1.90093-1.58411a1.801 1.801 0 0 1 1.15291-.41743 1.801 1.801 0 0 1 1.27348 3.07447l-.58238.58238a8 8 0 0 0 -2.3431 5.65686v4.68629" fill="#4fcc73"/><g fill="#231f20"><path d="m43.31543 16.7041a13.18284 13.18284 0 0 0 -4.43262-.70361c-.56567.005-1.20953.0086-1.88281.01166v-3.69867a6.95877 6.95877 0 0 1 2.04883-4.94922l.584-.58252a2.75848 2.75848 0 0 0 .6074-3.05274 2.75767 2.75767 0 0 0 -2.58789-1.729 2.80736 2.80736 0 0 0 -1.79394.64941l-1.8994 1.58399a10.99387 10.99387 0 0 0 -2.04156 2.26983l-3.683-3.68341a2.78682 2.78682 0 0 0 -1.98053-.81982h-.40918a2.80084 2.80084 0 0 0 -2.15137 4.59424l1.14746 1.37695a5.00737 5.00737 0 0 1 1.15918 3.20117v4.83191c-.31415-.0014-.63757-.00274-.93751-.00427a12.29511 12.29511 0 0 0 -4.376.70361 12.92611 12.92611 0 0 0 -8.68649 12.2461 30.79135 30.79135 0 0 0 5.18848 17.13529l3.31543 4.97363a6.594 6.594 0 0 0 5.49609 2.94137h1a1.001 1.001 0 0 1 1 1v2.98047a4.0095 4.0095 0 0 0 3.97363 4h.02737a3.99931 3.99931 0 0 0 3.999-4v-1.98047a2.00229 2.00229 0 0 1 2-2 6.594 6.594 0 0 0 5.49609-2.94141l3.31543-4.97359a30.79135 30.79135 0 0 0 5.18848-17.13529 12.92641 12.92641 0 0 0 -8.68457-12.24561zm-8.07617-10.93457 1.90039-1.584a.80143.80143 0 0 1 .51269-.18553.80137.80137 0 0 1 .56739 1.36719l-.584.58252a8.9399 8.9399 0 0 0 -2.63573 6.36377v3.70483c-.96576.00183-1.96967.0025-3 .00177v-3.33649a8.97586 8.97586 0 0 1 3.23926-6.91406zm-8.86133.92139-1.14746-1.37692a.80079.80079 0 0 1 .61426-1.314h.40918a.80749.80749 0 0 1 .5664.23438l4.09088 4.09088a10.98 10.98 0 0 0 -.91119 4.35833v3.33368q-1.01394-.002-2-.00525v-4.83966a7.01686 7.01686 0 0 0 -1.62207-4.48144zm18.76953 38.28467-.68286 1.02441h-8.4646v2h7.13141l-1.29941 1.94922a4.59719 4.59719 0 0 1 -3.832 2.05078 4.00427 4.00427 0 0 0 -4 4v1.98047a1.99883 1.99883 0 0 1 -2 2h-.0127a2.00533 2.00533 0 0 1 -1.9873-2v-2.98047a3.00328 3.00328 0 0 0 -3-3h-1a4.59719 4.59719 0 0 1 -3.832-2.05078l-3.31543-4.97363a29.00422 29.00422 0 0 1 -1.71811-2.97559h7.86554v-2h-8.78748a28.74157 28.74157 0 0 1 -2.13739-9h4.92487v-2h-4.99817c0-.01685-.00183-.03345-.00183-.05029a10.94541 10.94541 0 0 1 7.36426-10.36426 10.55674 10.55674 0 0 1 3.68847-.58545c3.23731.0166 9.79786.03564 13.84766.00049a10.891 10.891 0 0 1 11.09961 10.94922c0 .35168-.02588.70013-.03851 1.05029h-4.96149v2h4.82068a28.77194 28.77194 0 0 1 -4.67322 12.97559z"/><path d="m39 27h2v2h-2z"/><path d="m22 24h2v2h-2z"/><path d="m30 44h2v2h-2z"/><path d="m26 35h2v2h-2z"/><path d="m43.31543 16.7041a13.18284 13.18284 0 0 0 -4.43262-.70361c-.56567.005-1.20953.0086-1.88281.01166v-3.69867a6.95877 6.95877 0 0 1 2.04883-4.94922l.584-.58252a2.75848 2.75848 0 0 0 .6074-3.05274 2.75767 2.75767 0 0 0 -2.58789-1.729 2.80736 2.80736 0 0 0 -1.79394.64941l-1.8994 1.58399a10.99387 10.99387 0 0 0 -2.04156 2.26983l-3.683-3.68341a2.78682 2.78682 0 0 0 -1.98053-.81982h-.40918a2.80084 2.80084 0 0 0 -2.15137 4.59424l1.14746 1.37695a5.00737 5.00737 0 0 1 1.15918 3.20117v4.83191c-.31415-.0014-.63757-.00274-.93751-.00427a12.29511 12.29511 0 0 0 -4.376.70361 12.92611 12.92611 0 0 0 -8.68649 12.2461 30.79135 30.79135 0 0 0 5.18848 17.13529l3.31543 4.97363a6.594 6.594 0 0 0 5.49609 2.94137h1a1.001 1.001 0 0 1 1 1v2.98047a4.0095 4.0095 0 0 0 3.97363 4h.02737a3.99931 3.99931 0 0 0 3.999-4v-1.98047a2.00229 2.00229 0 0 1 2-2 6.594 6.594 0 0 0 5.49609-2.94141l3.31543-4.97359a30.79135 30.79135 0 0 0 5.18848-17.13529 12.92641 12.92641 0 0 0 -8.68457-12.24561zm-8.07617-10.93457 1.90039-1.584a.80143.80143 0 0 1 .51269-.18553.80137.80137 0 0 1 .56739 1.36719l-.584.58252a8.9399 8.9399 0 0 0 -2.63573 6.36377v3.70483c-.96576.00183-1.96967.0025-3 .00177v-3.33649a8.97586 8.97586 0 0 1 3.23926-6.91406zm-8.86133.92139-1.14746-1.37692a.80079.80079 0 0 1 .61426-1.314h.40918a.80749.80749 0 0 1 .5664.23438l4.09088 4.09088a10.98 10.98 0 0 0 -.91119 4.35833v3.33368q-1.01394-.002-2-.00525v-4.83966a7.01686 7.01686 0 0 0 -1.62207-4.48144zm18.76953 38.28467-.68286 1.02441h-8.4646v2h7.13141l-1.29941 1.94922a4.59719 4.59719 0 0 1 -3.832 2.05078 4.00427 4.00427 0 0 0 -4 4v1.98047a1.99883 1.99883 0 0 1 -2 2h-.0127a2.00533 2.00533 0 0 1 -1.9873-2v-2.98047a3.00328 3.00328 0 0 0 -3-3h-1a4.59719 4.59719 0 0 1 -3.832-2.05078l-3.31543-4.97363a29.00422 29.00422 0 0 1 -1.71811-2.97559h7.86554v-2h-8.78748a28.74157 28.74157 0 0 1 -2.13739-9h4.92487v-2h-4.99817c0-.01685-.00183-.03345-.00183-.05029a10.94541 10.94541 0 0 1 7.36426-10.36426 10.55674 10.55674 0 0 1 3.68847-.58545c3.23731.0166 9.79786.03564 13.84766.00049a10.891 10.891 0 0 1 11.09961 10.94922c0 .35168-.02588.70013-.03851 1.05029h-4.96149v2h4.82068a28.77194 28.77194 0 0 1 -4.67322 12.97559z"/><path d="m39 27h2v2h-2z"/><path d="m22 24h2v2h-2z"/><path d="m30 44h2v2h-2z"/><path d="m26 35h2v2h-2z"/></g></svg>